<svg width="68" height="68" viewBox="0 0 68 68" fill="none" xmlns="http://www.w3.org/2000/svg">
<path d="M67.8535 29.6585L65.4987 4.78928C65.3794 3.50047 64.3531 2.48215 63.0643 2.35486L38.195 0H38.1632C37.9086 0 37.7097 0.0795563 37.5586 0.230713L0.30242 37.4869C0.228669 37.5605 0.170157 37.6479 0.130235 37.7441C0.0903121 37.8404 0.0697632 37.9435 0.0697632 38.0477C0.0697632 38.1519 0.0903121 38.2551 0.130235 38.3513C0.170157 38.4476 0.228669 38.535 0.30242 38.6086L29.2449 67.5511C29.3961 67.7023 29.595 67.7818 29.8098 67.7818C30.0246 67.7818 30.2235 67.7023 30.3746 67.5511L67.6308 30.295C67.7899 30.1279 67.8695 29.8972 67.8535 29.6585ZM29.8018 59.5637L8.28986 38.0517L40.0885 6.25311L59.7388 8.11473L61.6004 27.7651L29.8018 59.5637ZM47.3281 13.5245C43.4696 13.5245 40.3271 16.667 40.3271 20.5255C40.3271 24.384 43.4696 27.5264 47.3281 27.5264C51.1865 27.5264 54.329 24.384 54.329 20.5255C54.329 16.667 51.1865 13.5245 47.3281 13.5245ZM47.3281 23.0713C45.9199 23.0713 44.7823 21.9336 44.7823 20.5255C44.7823 19.1173 45.9199 17.9797 47.3281 17.9797C48.7362 17.9797 49.8739 19.1173 49.8739 20.5255C49.8739 21.9336 48.7362 23.0713 47.3281 23.0713Z" fill="white"/>
</svg>
