<svg width="73" height="68" viewBox="0 0 73 68" fill="none" xmlns="http://www.w3.org/2000/svg">
<path d="M14.6426 48.557L18.0756 45.124L9.36935 36.4178H29.2097V31.5621H9.36935L18.0756 22.8558L14.6426 19.4229L0.0755615 33.9899L14.6426 48.557Z" fill="white"/>
<path d="M38.9212 19.4229C37.0077 19.4201 35.1126 19.7956 33.3448 20.5276C31.5769 21.2597 29.9711 22.3339 28.6198 23.6886L38.9212 33.9899L28.6198 44.2913C30.3138 45.985 32.3993 47.2348 34.6916 47.93C36.984 48.6252 39.4124 48.7444 41.7618 48.277C44.1112 47.8096 46.3091 46.77 48.1608 45.2504C50.0124 43.7307 51.4608 41.7778 52.3775 39.5648C53.2943 37.3517 53.6511 34.9467 53.4164 32.5627C53.1817 30.1788 52.3627 27.8896 51.032 25.8977C49.7013 23.9059 47.9 22.273 45.7875 21.1436C43.675 20.0142 41.3166 19.4232 38.9212 19.4229Z" fill="white"/>
<path d="M38.9211 6.1856e-06C34.4577 -0.00269047 30.0378 0.87636 25.9151 2.58667C21.7924 4.29699 18.0482 6.80488 14.8975 9.96631L18.3305 13.3993C22.4038 9.32186 27.595 6.54418 33.2472 5.41765C38.8995 4.29112 44.7589 4.86636 50.0842 7.07059C55.4095 9.27482 59.9614 13.009 63.164 17.8007C66.3666 22.5924 68.076 28.2264 68.076 33.9898C68.076 39.7533 66.3666 45.3872 63.164 50.179C59.9614 54.9707 55.4095 58.7049 50.0842 60.9091C44.7589 63.1133 38.8995 63.6886 33.2472 62.562C27.595 61.4355 22.4038 58.6578 18.3305 54.5804L14.8975 58.0134C18.8495 61.9648 23.715 64.8806 29.063 66.5025C34.411 68.1244 40.0765 68.4023 45.5576 67.3116C51.0387 66.2209 56.1662 63.7953 60.4859 60.2496C64.8056 56.7039 68.1842 52.1475 70.3223 46.9842C72.4605 41.8208 73.2922 36.2098 72.7439 30.6482C72.1955 25.0867 70.284 19.7461 67.1787 15.0998C64.0734 10.4534 59.87 6.6446 54.9411 4.01075C50.0121 1.3769 44.5096 -0.000691369 38.9211 6.1856e-06Z" fill="white"/>
</svg>
