<svg width="21" height="20" viewBox="0 0 21 20" fill="none" xmlns="http://www.w3.org/2000/svg">
<path d="M20.7972 5.90309C20.786 5.06334 20.6288 4.23193 20.3326 3.44606C20.0758 2.78318 19.6835 2.18117 19.1808 1.67849C18.6781 1.17581 18.0761 0.783514 17.4132 0.526666C16.6374 0.235455 15.8179 0.0779923 14.9894 0.0609825C13.9228 0.0133053 13.5846 0 10.877 0C8.16939 0 7.82234 6.99754e-08 6.76347 0.0609825C5.93539 0.0781174 5.11622 0.235578 4.3408 0.526666C3.67782 0.783335 3.07572 1.17557 2.57302 1.67827C2.07031 2.18097 1.67808 2.78308 1.42141 3.44606C1.12962 4.22124 0.972495 5.04059 0.956836 5.86872C0.909159 6.93647 0.894745 7.27464 0.894745 9.98226C0.894745 12.6899 0.894745 13.0358 0.956836 14.0958C0.973468 14.9252 1.1298 15.7434 1.42141 16.5207C1.67851 17.1835 2.07104 17.7853 2.57391 18.2878C3.07678 18.7903 3.67894 19.1824 4.34191 19.439C5.11521 19.7419 5.93452 19.9106 6.76458 19.9379C7.83232 19.9856 8.1705 20 10.8781 20C13.5857 20 13.9328 20 14.9917 19.9379C15.8201 19.9216 16.6397 19.7645 17.4154 19.4733C18.0781 19.2162 18.68 18.8238 19.1826 18.3211C19.6853 17.8185 20.0777 17.2166 20.3348 16.5539C20.6264 15.7778 20.7828 14.9595 20.7994 14.1291C20.8471 13.0624 20.8615 12.7243 20.8615 10.0155C20.8593 7.30791 20.8593 6.96419 20.7972 5.90309ZM10.8704 15.1026C8.03855 15.1026 5.74451 12.8085 5.74451 9.97672C5.74451 7.14492 8.03855 4.85087 10.8704 4.85087C12.2298 4.85087 13.5336 5.39091 14.4949 6.3522C15.4562 7.31348 15.9962 8.61726 15.9962 9.97672C15.9962 11.3362 15.4562 12.64 14.4949 13.6012C13.5336 14.5625 12.2298 15.1026 10.8704 15.1026ZM16.2002 5.85653C15.5383 5.85653 15.005 5.3221 15.005 4.66127C15.005 4.50438 15.0359 4.34903 15.0959 4.20408C15.1559 4.05913 15.2439 3.92743 15.3549 3.81649C15.4658 3.70555 15.5975 3.61755 15.7425 3.55751C15.8874 3.49747 16.0428 3.46657 16.1997 3.46657C16.3566 3.46657 16.5119 3.49747 16.6569 3.55751C16.8018 3.61755 16.9335 3.70555 17.0444 3.81649C17.1554 3.92743 17.2434 4.05913 17.3034 4.20408C17.3635 4.34903 17.3944 4.50438 17.3944 4.66127C17.3944 5.3221 16.8599 5.85653 16.2002 5.85653Z" fill="white"/>
<path d="M10.8704 13.3062C12.7093 13.3062 14.2 11.8155 14.2 9.97661C14.2 8.1377 12.7093 6.64697 10.8704 6.64697C9.03146 6.64697 7.54073 8.1377 7.54073 9.97661C7.54073 11.8155 9.03146 13.3062 10.8704 13.3062Z" fill="white"/>
</svg>
