<svg width="56" height="69" viewBox="0 0 56 69" fill="none" xmlns="http://www.w3.org/2000/svg">
<path d="M54.6754 8.781L29.3677 0.156404C29.0623 0.0521348 28.6527 0 28.243 0C27.8334 0 27.4238 0.0521348 27.1184 0.156404L1.81066 8.781C1.19249 8.98954 0.686035 9.70453 0.686035 10.3599V46.2883C0.686035 46.9437 1.11056 47.8077 1.62446 48.2173L27.2972 68.2222C27.5578 68.4233 27.893 68.5276 28.2356 68.5276C28.5782 68.5276 28.9208 68.4233 29.174 68.2222L54.8467 48.2173C55.3606 47.8151 55.7851 46.9512 55.7851 46.2883V10.3599C55.8 9.70453 55.2936 8.99699 54.6754 8.781ZM50.4376 44.8583L28.243 62.1522L6.04848 44.8583V13.0114L28.243 5.44437L50.4376 13.0114V44.8583ZM20.2143 29.8882C19.9908 29.5828 19.6333 29.3966 19.246 29.3966H15.1348C14.6507 29.3966 14.3677 29.9478 14.6507 30.3425L24.0648 43.3017C24.1761 43.4541 24.3218 43.578 24.4901 43.6635C24.6583 43.7489 24.8443 43.7934 25.033 43.7934C25.2217 43.7934 25.4077 43.7489 25.576 43.6635C25.7442 43.578 25.8899 43.4541 26.0012 43.3017L41.8353 21.5019C42.1184 21.1072 41.8353 20.556 41.3512 20.556H37.24C36.8602 20.556 36.4952 20.7422 36.2718 21.0476L25.033 36.5242L20.2143 29.8882Z" fill="white"/>
</svg>
