<svg width="79" height="68" viewBox="0 0 79 68" fill="none" xmlns="http://www.w3.org/2000/svg">
<path d="M40.5023 5.32835e-05C40.094 -0.000350519 39.6905 0.0878855 39.3197 0.258667C38.9488 0.429448 38.6195 0.678703 38.3544 0.98921L38.0718 1.19269C29.565 -1.30563 19.9165 0.627461 13.1846 6.99763C7.21008 12.6443 4.93219 20.4558 6.32831 27.7643L6.24353 27.8434L2.45082 31.4326C1.67807 32.1456 1.06137 33.0109 0.639567 33.974C0.217763 34.937 0 35.977 0 37.0284C0 38.0798 0.217763 39.1198 0.639567 40.0829C1.06137 41.046 1.67807 41.9113 2.45082 42.6242C4.38391 44.4612 7.04051 45.2074 9.55579 44.8626C9.91754 46.1796 10.6467 47.4287 11.7376 48.4631C13.2128 49.8592 15.1064 50.6223 17.0395 50.7579C17.1808 52.5836 17.9891 54.3754 19.47 55.7715C20.9396 57.1677 22.8331 57.9307 24.7662 58.0664C24.9075 59.8921 25.7158 61.6839 27.1967 63.08C28.6709 64.4424 30.5695 65.2554 32.5729 65.382C34.5763 65.5086 36.5621 64.9412 38.1961 63.7752L40.0614 65.5388C43.3397 68.6476 48.6699 68.6476 51.9539 65.5388C53.4235 64.1483 54.2374 62.3678 54.39 60.5478C56.3118 60.4065 58.1828 59.6434 59.6524 58.2529C61.122 56.8624 61.9359 55.082 62.0829 53.2619C63.9764 53.1037 65.8247 52.3406 67.283 50.9727C68.4191 49.8931 69.1652 48.5761 69.51 47.1913C70.7673 47.3508 72.0443 47.2319 73.2506 46.8432C74.4569 46.4544 75.563 45.8053 76.4906 44.9417C77.2634 44.2287 77.8801 43.3635 78.3019 42.4004C78.7237 41.4373 78.9415 40.3973 78.9415 39.3459C78.9415 38.2945 78.7237 37.2545 78.3019 36.2914C77.8801 35.3283 77.2634 34.463 76.4906 33.7501L73.1331 30.5735L73.7775 28.1995C75.2571 22.6988 74.5055 16.8364 71.6861 11.8869C67.5317 4.52756 59.4884 0.017009 50.8291 0.017009H45.0693C44.8095 0.00503582 44.5494 -0.00061695 44.2893 5.32835e-05H40.4966H40.5023ZM65.2142 30.8448L67.9613 33.5579C68.1365 33.7275 68.3287 33.8688 68.5322 33.9875L72.387 37.6276C72.6237 37.8457 72.8127 38.1105 72.9419 38.4052C73.0711 38.7 73.1378 39.0184 73.1378 39.3402C73.1378 39.6621 73.0711 39.9805 72.9419 40.2752C72.8127 40.57 72.6237 40.8348 72.387 41.0529C71.894 41.5089 71.2471 41.7622 70.5755 41.7622C69.9039 41.7622 69.2569 41.5089 68.7639 41.0529L62.3202 34.9653C61.7616 34.4493 61.029 34.1628 60.2685 34.1628C59.5079 34.1628 58.7753 34.4493 58.2167 34.9653L58.1488 35.0219C57.0184 36.0958 57.0184 37.8367 58.1488 38.9107L63.1737 43.6586C63.4106 43.8772 63.5996 44.1425 63.7289 44.4377C63.8582 44.733 63.9249 45.0518 63.9249 45.3741C63.9249 45.6964 63.8582 46.0152 63.7289 46.3105C63.5996 46.6057 63.4106 46.871 63.1737 47.0896C62.7251 47.5048 62.1477 47.7537 61.5378 47.7948C60.9279 47.836 60.3223 47.6669 59.8219 47.3157C59.2536 46.9131 58.564 46.7186 57.8691 46.7649C57.1742 46.8112 56.5164 47.0956 56.0066 47.57C55.5142 48.0284 55.2155 48.6576 55.1713 49.3288C55.1272 50.0001 55.3411 50.6629 55.7692 51.1819C56.1453 51.6418 56.3314 52.2281 56.2893 52.8207C56.2473 53.4134 55.9803 53.9675 55.5431 54.3698C55.0883 54.7906 54.5015 55.0405 53.8829 55.0766C53.2643 55.1127 52.6523 54.9328 52.1517 54.5676C51.5859 54.1539 50.8941 53.9492 50.1943 53.9884C49.4945 54.0276 48.8299 54.3082 48.3138 54.7824C47.8158 55.2407 47.5128 55.8729 47.4676 56.5483C47.4224 57.2236 47.6383 57.8905 48.0707 58.4112C48.8621 59.3721 48.7829 60.7682 47.8446 61.6556C47.3438 62.1164 46.6882 62.3721 46.0076 62.3721C45.3271 62.3721 44.6714 62.1164 44.1706 61.6556L42.3506 59.9373L42.8254 59.4908C43.5981 58.7778 44.2148 57.9125 44.6366 56.9495C45.0584 55.9864 45.2762 54.9464 45.2762 53.895C45.2762 52.8436 45.0584 51.8036 44.6366 50.8405C44.2148 49.8774 43.5981 49.0121 42.8254 48.2992C41.3775 46.9428 39.5034 46.1316 37.5235 46.0043C37.3672 44.0884 36.5003 42.3002 35.093 40.9907C33.6474 39.6334 31.7754 38.8203 29.7968 38.6902C29.6404 36.7743 28.7735 34.9861 27.3663 33.6766C26.4232 32.7983 25.2959 32.1416 24.0668 31.7544C22.8376 31.3672 21.5375 31.2592 20.2613 31.4383C19.8776 30.0625 19.1228 28.8188 18.0795 27.8434C17.2464 27.0639 16.2668 26.4576 15.1976 26.0598C14.1283 25.662 12.9906 25.4805 11.8506 25.526C11.5467 22.8296 11.8805 20.0995 12.825 17.5557C13.7694 15.0119 15.2982 12.7255 17.2882 10.8808C19.2348 9.06293 21.5327 7.66238 24.0405 6.7652C26.5484 5.86802 29.2132 5.49317 31.8712 5.66368L25.6819 10.129C24.7321 10.8033 23.931 11.6656 23.3283 12.6624C22.7256 13.6593 22.3342 14.7693 22.1784 15.9236C22.0226 17.078 22.1056 18.2521 22.4225 19.373C22.7393 20.4939 23.2831 21.5378 24.0201 22.4398C25.5068 24.2609 27.6298 25.4491 29.9595 25.7639C32.2892 26.0788 34.6515 25.4967 36.5683 24.1355L44.1819 18.6527H52.3213L65.2142 30.8448ZM28.9885 14.7074L41.5536 5.65238H44.295C44.5306 5.65001 44.7663 5.65566 45.0015 5.66933H50.8234C57.561 5.66933 63.6655 9.17378 66.7686 14.6678C68.7582 18.1892 69.3517 22.242 68.4643 26.1194L55.9614 13.8087C55.4332 13.2907 54.7229 13.0005 53.9831 13.0004H43.2606C42.6684 13.0002 42.091 13.1861 41.6101 13.5317L33.2673 19.5514C32.5242 20.0678 31.6145 20.287 30.7178 20.1656C29.821 20.0442 29.0023 19.5911 28.4233 18.8958C28.1672 18.5917 27.9776 18.2374 27.8666 17.8556C27.7557 17.4739 27.7259 17.0731 27.7791 16.6792C27.8324 16.2852 27.9675 15.9068 28.1757 15.5681C28.384 15.2295 28.6609 14.9383 28.9885 14.7131V14.7074ZM35.1043 52.171C35.5984 51.7181 36.245 51.4678 36.9153 51.4699C37.5855 51.472 38.2305 51.7263 38.7218 52.1823C38.9585 52.4004 39.1474 52.6652 39.2766 52.96C39.4059 53.2548 39.4726 53.5731 39.4726 53.895C39.4726 54.2168 39.4059 54.5352 39.2766 54.83C39.1474 55.1248 38.9585 55.3895 38.7218 55.6076L34.9234 59.1969C34.4307 59.6513 33.785 59.9036 33.1147 59.9036C32.4444 59.9036 31.7987 59.6513 31.3059 59.1969C31.0692 58.9788 30.8803 58.714 30.7511 58.4192C30.6218 58.1244 30.5551 57.8061 30.5551 57.4842C30.5551 57.1623 30.6218 56.844 30.7511 56.5492C30.8803 56.2544 31.0692 55.9896 31.3059 55.7715L35.1043 52.1767V52.171ZM31.0007 48.2879L27.1967 51.8884C26.7037 52.3445 26.0567 52.5978 25.3851 52.5978C24.7135 52.5978 24.0666 52.3445 23.5736 51.8884C23.3421 51.6748 23.1564 51.4165 23.0276 51.129C22.8989 50.8416 22.8298 50.531 22.8245 50.2161C22.8192 49.9012 22.8778 49.5885 22.9969 49.2969C23.1159 49.0053 23.2929 48.7409 23.517 48.5196L23.5736 48.4631L27.3663 44.8739L27.4228 44.8173C27.9194 44.3849 28.5585 44.1515 29.2169 44.1619C29.8754 44.1723 30.5067 44.4259 30.9894 44.8739C31.225 45.0911 31.4133 45.3546 31.5424 45.6479C31.6715 45.9412 31.7387 46.2579 31.7398 46.5784C31.7408 46.8989 31.6757 47.2161 31.5486 47.5102C31.4214 47.8044 31.2349 48.0691 31.0007 48.2879ZM23.257 40.9907L19.47 44.5743L19.4078 44.6308C18.9115 45.0617 18.2736 45.2942 17.6165 45.2837C16.9594 45.2733 16.3292 45.0207 15.8468 44.5743C15.6101 44.3562 15.4212 44.0914 15.292 43.7966C15.1627 43.5019 15.096 43.1835 15.096 42.8616C15.096 42.5398 15.1627 42.2214 15.292 41.9266C15.4212 41.6319 15.6101 41.3671 15.8468 41.149L19.6339 37.5654C20.1272 37.1077 20.7753 36.8534 21.4483 36.8534C22.1212 36.8534 22.7693 37.1077 23.2627 37.5654C23.4941 37.779 23.6799 38.0373 23.8086 38.3248C23.9374 38.6122 24.0065 38.9228 24.0118 39.2377C24.017 39.5526 23.9584 39.8653 23.8394 40.1569C23.7203 40.4485 23.5434 40.7129 23.3192 40.9342L23.2627 40.9907H23.257ZM13.9759 35.1519L10.1889 38.7411C9.69549 39.1988 9.0474 39.4531 8.37445 39.4531C7.70151 39.4531 7.05342 39.1988 6.56006 38.7411C6.32335 38.523 6.13442 38.2582 6.0052 37.9634C5.87597 37.6687 5.80925 37.3503 5.80925 37.0284C5.80925 36.7066 5.87597 36.3882 6.0052 36.0934C6.13442 35.7987 6.32335 35.5339 6.56006 35.3158L10.3528 31.7266C10.8458 31.2705 11.4927 31.0172 12.1643 31.0172C12.836 31.0172 13.4829 31.2705 13.9759 31.7266C14.2126 31.9446 14.4015 32.2094 14.5308 32.5042C14.66 32.799 14.7267 33.1174 14.7267 33.4392C14.7267 33.7611 14.66 34.0794 14.5308 34.3742C14.4015 34.669 14.2126 34.9338 13.9759 35.1519Z" fill="white"/>
</svg>
