<svg width="21" height="20" viewBox="0 0 21 20" fill="none" xmlns="http://www.w3.org/2000/svg">
<path d="M18.8045 0H3.09023C1.90719 0 0.947372 0.959821 0.947372 2.14286V17.8571C0.947372 19.0402 1.90719 20 3.09023 20H18.8045C19.9876 20 20.9474 19.0402 20.9474 17.8571V2.14286C20.9474 0.959821 19.9876 0 18.8045 0ZM16.6215 7.08929C16.6304 7.21429 16.6304 7.34375 16.6304 7.46875C16.6304 11.3393 13.684 15.7991 8.30005 15.7991C6.63934 15.7991 5.09916 15.317 3.80452 14.4866C4.04112 14.5134 4.2688 14.5223 4.50987 14.5223C5.88041 14.5223 7.13934 14.058 8.1438 13.2723C6.85809 13.2455 5.77773 12.4018 5.40719 11.2411C5.85809 11.308 6.26434 11.308 6.72862 11.1875C5.38934 10.9152 4.38487 9.73661 4.38487 8.3125V8.27679C4.77327 8.49554 5.22862 8.62946 5.7063 8.64732C5.30471 8.38019 4.97549 8.0178 4.74803 7.59248C4.52057 7.16716 4.40194 6.69214 4.40273 6.20982C4.40273 5.66518 4.54559 5.16518 4.80005 4.73214C6.24202 6.50893 8.40719 7.66964 10.8358 7.79464C10.4206 5.80804 11.9072 4.19643 13.6929 4.19643C14.5367 4.19643 15.2956 4.54911 15.8313 5.12054C16.492 4.99554 17.1259 4.75 17.6884 4.41518C17.4697 5.09375 17.0099 5.66518 16.4027 6.02679C16.992 5.96429 17.5634 5.79911 18.0902 5.57143C17.6929 6.15625 17.1929 6.67411 16.6215 7.08929Z" fill="white"/>
</svg>
